<svg xmlns="http://www.w3.org/2000/svg" xmlns:xlink="http://www.w3.org/1999/xlink" width="100" zoomAndPan="magnify" viewBox="0 0 75 74.999997" height="100" preserveAspectRatio="xMidYMid meet" version="1.0"><defs><clipPath id="8627495a73"><path d="M 16.3125 36 L 59 36 L 59 57 L 16.3125 57 Z M 16.3125 36 " clip-rule="nonzero"/></clipPath><clipPath id="2535b4147d"><path d="M 18 14.25 L 57 14.25 L 57 30 L 18 30 Z M 18 14.25 " clip-rule="nonzero"/></clipPath></defs><g clip-path="url(#8627495a73)"><path fill="#ff0000" d="M 57.429688 56.625 L 17.570312 56.625 C 16.882812 56.625 16.324219 56.066406 16.324219 55.378906 L 16.324219 37.941406 C 16.324219 37.253906 16.882812 36.695312 17.570312 36.695312 L 57.429688 36.695312 C 58.117188 36.695312 58.675781 37.253906 58.675781 37.941406 L 58.675781 55.378906 C 58.675781 56.066406 58.117188 56.625 57.429688 56.625 Z M 18.816406 54.132812 L 56.183594 54.132812 L 56.183594 39.1875 L 18.816406 39.1875 Z M 18.816406 54.132812 " fill-opacity="1" fill-rule="nonzero"/></g><path fill="#ff0000" d="M 27.535156 51.644531 C 26.847656 51.644531 26.289062 51.085938 26.289062 50.398438 L 26.289062 45.414062 C 26.289062 44.726562 25.730469 44.167969 25.042969 44.167969 C 24.355469 44.167969 23.796875 44.726562 23.796875 45.414062 L 23.796875 50.398438 C 23.796875 51.085938 23.242188 51.644531 22.554688 51.644531 C 21.863281 51.644531 21.308594 51.085938 21.308594 50.398438 L 21.308594 45.414062 C 21.308594 43.355469 22.984375 41.679688 25.042969 41.679688 C 27.105469 41.679688 28.78125 43.355469 28.78125 45.414062 L 28.78125 50.398438 C 28.78125 51.085938 28.222656 51.644531 27.535156 51.644531 Z M 27.535156 51.644531 " fill-opacity="1" fill-rule="nonzero"/><path fill="#ff0000" d="M 27.535156 49.152344 L 22.554688 49.152344 C 21.863281 49.152344 21.308594 48.59375 21.308594 47.90625 C 21.308594 47.21875 21.863281 46.660156 22.554688 46.660156 L 27.535156 46.660156 C 28.222656 46.660156 28.78125 47.21875 28.78125 47.90625 C 28.78125 48.59375 28.222656 49.152344 27.535156 49.152344 Z M 27.535156 49.152344 " fill-opacity="1" fill-rule="nonzero"/><path fill="#ff0000" d="M 42.480469 47.90625 L 32.519531 47.90625 C 31.828125 47.90625 31.273438 47.347656 31.273438 46.660156 C 31.273438 45.972656 31.828125 45.414062 32.519531 45.414062 L 42.480469 45.414062 C 43.171875 45.414062 43.726562 45.972656 43.726562 46.660156 C 43.726562 47.347656 43.171875 47.90625 42.480469 47.90625 Z M 42.480469 47.90625 " fill-opacity="1" fill-rule="nonzero"/><path fill="#ff0000" d="M 52.445312 51.644531 L 47.464844 51.644531 C 47.003906 51.644531 46.582031 51.390625 46.367188 50.984375 C 46.148438 50.578125 46.171875 50.089844 46.429688 49.707031 L 50.121094 44.167969 L 47.464844 44.167969 C 46.777344 44.167969 46.21875 43.613281 46.21875 42.921875 C 46.21875 42.234375 46.777344 41.679688 47.464844 41.679688 L 52.445312 41.679688 C 52.90625 41.679688 53.328125 41.929688 53.546875 42.335938 C 53.761719 42.742188 53.738281 43.230469 53.484375 43.613281 L 49.792969 49.152344 L 52.445312 49.152344 C 53.136719 49.152344 53.691406 49.710938 53.691406 50.398438 C 53.691406 51.085938 53.136719 51.644531 52.445312 51.644531 Z M 52.445312 51.644531 " fill-opacity="1" fill-rule="nonzero"/><g clip-path="url(#2535b4147d)"><path fill="#ff0000" d="M 37.582031 29.222656 C 37.441406 29.222656 37.300781 29.199219 37.164062 29.148438 L 19.644531 22.921875 C 19.148438 22.746094 18.816406 22.277344 18.816406 21.75 C 18.816406 21.222656 19.148438 20.75 19.644531 20.574219 L 37.164062 14.347656 C 37.4375 14.25 37.734375 14.25 38.003906 14.347656 L 55.359375 20.574219 C 55.855469 20.753906 56.183594 21.222656 56.183594 21.75 C 56.183594 22.273438 55.855469 22.742188 55.359375 22.921875 L 38.003906 29.148438 C 37.867188 29.199219 37.726562 29.222656 37.582031 29.222656 Z M 23.78125 21.75 L 37.582031 26.652344 L 51.25 21.75 L 37.582031 16.84375 Z M 23.78125 21.75 " fill-opacity="1" fill-rule="nonzero"/></g><path fill="#ff0000" d="M 47.464844 39.1875 L 27.535156 39.1875 C 26.847656 39.1875 26.289062 38.628906 26.289062 37.941406 L 26.289062 24.40625 C 26.289062 23.71875 26.847656 23.160156 27.535156 23.160156 C 28.222656 23.160156 28.78125 23.71875 28.78125 24.40625 L 28.78125 36.695312 L 46.21875 36.695312 L 46.21875 24.429688 C 46.21875 23.742188 46.777344 23.183594 47.464844 23.183594 C 48.152344 23.183594 48.710938 23.742188 48.710938 24.429688 L 48.710938 37.941406 C 48.710938 38.628906 48.152344 39.1875 47.464844 39.1875 Z M 47.464844 39.1875 " fill-opacity="1" fill-rule="nonzero"/><path fill="#ff0000" d="M 52.445312 31.714844 C 51.757812 31.714844 51.203125 31.15625 51.203125 30.46875 L 51.203125 22.644531 C 51.203125 21.953125 51.757812 21.398438 52.445312 21.398438 C 53.136719 21.398438 53.691406 21.953125 53.691406 22.644531 L 53.691406 30.46875 C 53.691406 31.15625 53.136719 31.714844 52.445312 31.714844 Z M 52.445312 31.714844 " fill-opacity="1" fill-rule="nonzero"/></svg>