<svg xmlns="http://www.w3.org/2000/svg" xmlns:xlink="http://www.w3.org/1999/xlink" width="100" zoomAndPan="magnify" viewBox="0 0 75 74.999997" height="100" preserveAspectRatio="xMidYMid meet" version="1.0"><defs><clipPath id="6f9fc88b1e"><path d="M 19.125 10 L 50 10 L 50 53 L 19.125 53 Z M 19.125 10 " clip-rule="nonzero"/></clipPath><clipPath id="9a6629bee5"><path d="M 30 32 L 55.875 32 L 55.875 65 L 30 65 Z M 30 32 " clip-rule="nonzero"/></clipPath></defs><g clip-path="url(#6f9fc88b1e)"><path fill="#ff0000" d="M 31.847656 33.636719 L 43.101562 31.449219 C 43.324219 31.402344 43.566406 31.402344 43.789062 31.449219 L 46.402344 31.957031 L 49.679688 32.589844 L 49.679688 28.554688 C 49.679688 27.648438 48.945312 26.921875 48.042969 26.921875 L 46.285156 26.921875 L 46.285156 22.632812 C 46.285156 16.160156 41.019531 10.894531 34.546875 10.894531 C 28.078125 10.894531 22.8125 16.160156 22.8125 22.632812 L 22.8125 26.925781 L 21.058594 26.925781 C 20.15625 26.925781 19.425781 27.65625 19.425781 28.558594 L 19.425781 50.789062 C 19.425781 51.699219 20.160156 52.429688 21.058594 52.429688 L 29.691406 52.429688 L 29.832031 49.15625 L 30.414062 35.308594 C 30.449219 34.488281 31.042969 33.792969 31.847656 33.636719 Z M 26.082031 22.632812 C 26.082031 17.960938 29.878906 14.167969 34.546875 14.167969 C 39.214844 14.167969 43.007812 17.960938 43.007812 22.632812 L 43.007812 26.925781 L 26.082031 26.925781 Z M 26.082031 22.632812 " fill-opacity="1" fill-rule="nonzero"/></g><g clip-path="url(#9a6629bee5)"><path fill="#ff0000" d="M 55.507812 36.300781 C 55.476562 35.535156 54.921875 34.890625 54.175781 34.746094 L 49.210938 33.78125 L 46.179688 33.191406 L 43.769531 32.722656 C 43.558594 32.679688 43.335938 32.679688 43.125 32.722656 L 32.722656 34.746094 C 31.976562 34.890625 31.425781 35.535156 31.398438 36.300781 L 30.855469 49.101562 L 30.726562 52.128906 L 30.722656 52.246094 C 30.699219 52.722656 30.890625 53.207031 31.253906 53.53125 L 42.335938 63.675781 C 42.65625 63.964844 43.046875 64.105469 43.457031 64.105469 C 43.847656 64.105469 44.257812 63.964844 44.574219 63.675781 L 55.644531 53.53125 C 56.011719 53.207031 56.210938 52.722656 56.1875 52.246094 Z M 43.453125 60.222656 L 34.042969 51.621094 L 34.636719 37.742188 L 43.457031 36.019531 L 52.265625 37.742188 L 52.863281 51.621094 Z M 43.453125 60.222656 " fill-opacity="1" fill-rule="nonzero"/></g><path fill="#ff0000" d="M 42.335938 48.300781 C 39.019531 45.640625 38.6875 45.53125 38.414062 45.429688 L 37.367188 48.554688 C 37.234375 48.511719 39.765625 50.453125 41.585938 51.929688 C 41.875 52.167969 42.253906 52.300781 42.625 52.300781 C 42.6875 52.300781 42.753906 52.300781 42.820312 52.289062 C 43.253906 52.234375 43.664062 52.007812 43.929688 51.65625 L 50.324219 43.269531 L 47.699219 41.269531 Z M 42.335938 48.300781 " fill-opacity="1" fill-rule="nonzero"/></svg>