<svg xmlns="http://www.w3.org/2000/svg" xmlns:xlink="http://www.w3.org/1999/xlink" width="100" zoomAndPan="magnify" viewBox="0 0 75 74.999997" height="100" preserveAspectRatio="xMidYMid meet" version="1.0"><defs><clipPath id="02c2478825"><path d="M 17.691406 15.839844 L 50.488281 15.839844 L 50.488281 59.148438 L 17.691406 59.148438 Z M 17.691406 15.839844 " clip-rule="nonzero"/></clipPath><clipPath id="bf3d2b3118"><path d="M 25.320312 19.5 L 57.300781 19.5 L 57.300781 45.433594 L 25.320312 45.433594 Z M 25.320312 19.5 " clip-rule="nonzero"/></clipPath></defs><g clip-path="url(#02c2478825)"><path fill="#ff0000" d="M 50.457031 21.773438 C 49.847656 21.453125 49.234375 21.148438 48.613281 20.875 L 48.140625 20.664062 C 47.984375 20.597656 47.828125 20.535156 47.671875 20.472656 C 47.515625 20.410156 47.363281 20.339844 47.203125 20.28125 L 46.726562 20.105469 L 46.492188 20.015625 C 46.410156 19.988281 46.332031 19.960938 46.25 19.933594 L 45.773438 19.773438 C 45.617188 19.714844 45.453125 19.671875 45.292969 19.621094 L 44.8125 19.472656 C 44.488281 19.386719 44.167969 19.296875 43.84375 19.214844 C 43.519531 19.140625 43.195312 19.054688 42.871094 18.992188 L 42.382812 18.890625 C 42.21875 18.859375 42.054688 18.835938 41.890625 18.804688 C 41.726562 18.78125 41.566406 18.746094 41.402344 18.722656 L 40.664062 18.617188 L 39.925781 18.535156 C 39.597656 18.503906 39.269531 18.480469 38.945312 18.457031 C 38.289062 18.421875 37.632812 18.398438 36.980469 18.410156 L 36.488281 18.417969 L 36 18.441406 C 35.675781 18.449219 35.351562 18.480469 35.027344 18.503906 C 34.867188 18.515625 34.703125 18.535156 34.542969 18.550781 L 34.058594 18.605469 L 33.578125 18.671875 C 33.417969 18.695312 33.257812 18.710938 33.097656 18.742188 C 32.777344 18.800781 32.460938 18.84375 32.144531 18.914062 L 31.671875 19.011719 C 31.511719 19.046875 31.355469 19.085938 31.199219 19.121094 C 30.574219 19.265625 29.953125 19.445312 29.34375 19.636719 C 29.039062 19.734375 28.734375 19.839844 28.433594 19.945312 L 27.984375 20.113281 C 27.832031 20.167969 27.683594 20.222656 27.539062 20.289062 C 27.242188 20.410156 26.945312 20.527344 26.65625 20.664062 L 26.21875 20.859375 L 25.792969 21.070312 C 25.21875 21.347656 24.660156 21.65625 24.113281 21.976562 C 23.976562 22.054688 23.84375 22.140625 23.707031 22.222656 L 23.308594 22.472656 C 23.15625 22.570312 23.042969 22.644531 22.90625 22.734375 C 22.773438 22.824219 22.644531 22.914062 22.511719 23.003906 C 21.996094 23.363281 21.496094 23.742188 21.019531 24.140625 L 21.765625 22.597656 C 21.789062 23.449219 21.804688 24.296875 21.820312 25.148438 C 21.839844 26 21.851562 26.851562 21.863281 27.699219 C 21.878906 28.550781 21.886719 29.402344 21.894531 30.253906 L 21.902344 30.890625 L 21.90625 31.210938 L 21.914062 31.492188 L 21.929688 32.128906 L 21.933594 32.210938 L 21.945312 32.421875 L 21.960938 32.707031 C 21.976562 33.078125 22.019531 33.480469 22.054688 33.871094 C 22.070312 34.070312 22.101562 34.265625 22.125 34.460938 C 22.148438 34.65625 22.167969 34.851562 22.199219 35.046875 L 22.289062 35.632812 C 22.304688 35.730469 22.316406 35.828125 22.335938 35.925781 L 22.390625 36.214844 L 22.503906 36.796875 L 22.628906 37.375 L 22.695312 37.664062 C 22.71875 37.757812 22.742188 37.855469 22.765625 37.949219 L 22.914062 38.523438 C 22.964844 38.714844 23.023438 38.902344 23.078125 39.09375 C 23.136719 39.28125 23.1875 39.472656 23.25 39.660156 L 23.433594 40.222656 C 23.492188 40.410156 23.566406 40.59375 23.628906 40.78125 L 23.730469 41.058594 L 23.78125 41.199219 L 23.835938 41.335938 L 24.054688 41.886719 C 24.125 42.070312 24.207031 42.25 24.285156 42.429688 C 24.367188 42.613281 24.4375 42.796875 24.523438 42.972656 C 24.695312 43.328125 24.855469 43.691406 25.042969 44.039062 C 25.132812 44.214844 25.21875 44.394531 25.3125 44.566406 L 25.601562 45.085938 C 25.648438 45.171875 25.695312 45.261719 25.742188 45.347656 L 26.199219 46.109375 L 26.519531 46.613281 L 26.679688 46.863281 L 26.84375 47.109375 L 27.179688 47.597656 L 27.53125 48.078125 C 27.757812 48.402344 28.011719 48.710938 28.253906 49.023438 C 28.375 49.179688 28.507812 49.328125 28.632812 49.484375 C 28.761719 49.632812 28.882812 49.789062 29.019531 49.9375 L 29.414062 50.382812 C 29.480469 50.457031 29.546875 50.53125 29.617188 50.601562 L 29.820312 50.820312 L 30.027344 51.035156 C 30.09375 51.109375 30.164062 51.179688 30.234375 51.25 L 30.660156 51.667969 C 30.800781 51.8125 30.949219 51.945312 31.09375 52.082031 C 31.242188 52.214844 31.382812 52.351562 31.535156 52.484375 L 31.984375 52.878906 C 32.0625 52.941406 32.136719 53.007812 32.210938 53.074219 L 32.445312 53.261719 L 32.910156 53.640625 L 33.386719 54.003906 L 33.625 54.1875 C 33.707031 54.246094 33.789062 54.304688 33.871094 54.363281 L 34.359375 54.710938 C 34.523438 54.828125 34.695312 54.933594 34.859375 55.042969 C 35.03125 55.152344 35.191406 55.273438 35.363281 55.375 L 35.878906 55.691406 L 36.007812 55.769531 L 36.039062 55.789062 L 36.046875 55.792969 C 36.050781 55.796875 36.039062 55.789062 36.046875 55.796875 L 36.066406 55.804688 L 36.132812 55.847656 L 36.410156 56.007812 L 34.96875 56.003906 L 35.25 55.871094 L 35.324219 55.835938 L 35.332031 55.832031 C 35.320312 55.839844 35.363281 55.816406 35.304688 55.847656 L 35.308594 55.847656 L 35.328125 55.835938 L 35.363281 55.820312 L 35.511719 55.746094 L 36.09375 55.457031 C 36.503906 55.261719 36.828125 55.066406 37.1875 54.875 C 37.542969 54.691406 37.898438 54.464844 38.25 54.25 C 38.613281 54.046875 38.953125 53.804688 39.300781 53.578125 L 39.558594 53.40625 C 39.648438 53.347656 39.730469 53.285156 39.816406 53.226562 L 40.320312 52.859375 L 40.578125 52.675781 C 40.660156 52.613281 40.742188 52.546875 40.824219 52.484375 L 41.316406 52.09375 L 41.5625 51.902344 C 41.644531 51.832031 41.722656 51.765625 41.800781 51.695312 L 42.28125 51.289062 L 42.519531 51.082031 L 42.753906 50.867188 L 43.214844 50.4375 C 43.292969 50.367188 43.371094 50.296875 43.445312 50.222656 L 43.667969 49.996094 L 44.113281 49.546875 C 44.1875 49.472656 44.269531 49.398438 44.339844 49.320312 L 44.984375 48.617188 C 45.132812 48.464844 45.265625 48.300781 45.402344 48.136719 C 45.539062 47.972656 45.675781 47.8125 45.816406 47.648438 L 45.921875 47.527344 C 45.953125 47.488281 45.988281 47.445312 46.019531 47.402344 L 46.21875 47.152344 L 46.613281 46.644531 C 46.679688 46.5625 46.742188 46.476562 46.804688 46.386719 L 46.992188 46.128906 L 47.375 45.605469 C 47.5 45.429688 47.613281 45.25 47.734375 45.070312 L 48.097656 44.53125 C 48.328125 44.164062 48.546875 43.792969 48.78125 43.425781 C 48.996094 43.046875 49.210938 42.667969 49.433594 42.289062 C 49.3125 42.707031 49.1875 43.128906 49.054688 43.550781 C 48.910156 43.964844 48.765625 44.378906 48.609375 44.792969 C 48.441406 45.199219 48.273438 45.609375 48.097656 46.015625 L 47.8125 46.613281 L 47.671875 46.917969 C 47.621094 47.015625 47.574219 47.117188 47.519531 47.214844 L 47.207031 47.800781 L 47.046875 48.097656 C 47.023438 48.144531 46.996094 48.195312 46.96875 48.242188 L 46.882812 48.386719 C 46.769531 48.578125 46.65625 48.769531 46.539062 48.960938 C 46.425781 49.152344 46.3125 49.347656 46.1875 49.53125 L 45.816406 50.089844 L 45.628906 50.371094 C 45.570312 50.464844 45.5 50.550781 45.433594 50.644531 L 45.035156 51.183594 L 44.835938 51.457031 C 44.765625 51.546875 44.695312 51.632812 44.625 51.71875 L 44.199219 52.242188 L 43.984375 52.507812 L 43.761719 52.761719 L 43.3125 53.265625 C 43.234375 53.351562 43.160156 53.433594 43.082031 53.519531 L 42.847656 53.761719 L 42.371094 54.246094 C 42.292969 54.324219 42.214844 54.40625 42.132812 54.484375 L 41.882812 54.714844 L 41.382812 55.179688 C 41.296875 55.253906 41.21875 55.335938 41.128906 55.410156 L 40.871094 55.628906 C 40.519531 55.917969 40.179688 56.222656 39.8125 56.492188 C 39.449219 56.765625 39.097656 57.050781 38.703125 57.3125 C 38.320312 57.574219 37.921875 57.855469 37.5625 58.074219 L 37.007812 58.417969 L 36.871094 58.503906 L 36.835938 58.527344 L 36.816406 58.539062 L 36.8125 58.539062 L 36.777344 58.558594 L 36.769531 58.566406 L 36.695312 58.609375 L 36.402344 58.777344 L 35.761719 59.148438 L 34.960938 58.773438 L 34.671875 58.640625 L 34.597656 58.605469 L 34.582031 58.597656 L 34.554688 58.582031 L 34.515625 58.566406 L 34.367188 58.488281 L 33.761719 58.1875 L 33.613281 58.113281 L 33.464844 58.03125 L 33.167969 57.871094 C 32.972656 57.761719 32.773438 57.65625 32.578125 57.542969 L 31.996094 57.195312 C 31.902344 57.140625 31.804688 57.082031 31.707031 57.023438 L 31.425781 56.839844 L 30.855469 56.46875 L 30.300781 56.082031 L 30.023438 55.886719 C 29.933594 55.824219 29.84375 55.753906 29.753906 55.6875 L 29.210938 55.277344 C 29.035156 55.136719 28.859375 54.992188 28.683594 54.851562 C 28.507812 54.707031 28.332031 54.566406 28.164062 54.417969 L 27.652344 53.96875 C 27.566406 53.894531 27.484375 53.816406 27.398438 53.742188 L 26.90625 53.273438 C 26.824219 53.199219 26.742188 53.117188 26.660156 53.039062 L 26.183594 52.554688 C 26.019531 52.394531 25.871094 52.226562 25.714844 52.058594 C 25.5625 51.890625 25.40625 51.726562 25.257812 51.554688 C 24.964844 51.210938 24.660156 50.875 24.378906 50.515625 C 24.238281 50.335938 24.09375 50.160156 23.957031 49.980469 L 23.347656 49.160156 L 23.152344 48.878906 L 22.765625 48.316406 L 22.394531 47.742188 L 22.210938 47.457031 C 22.152344 47.359375 22.097656 47.261719 22.039062 47.164062 L 21.691406 46.574219 C 21.578125 46.378906 21.46875 46.175781 21.359375 45.976562 C 21.136719 45.582031 20.941406 45.167969 20.734375 44.761719 C 20.632812 44.558594 20.542969 44.347656 20.445312 44.144531 C 20.351562 43.9375 20.253906 43.730469 20.167969 43.519531 C 19.988281 43.101562 19.8125 42.679688 19.65625 42.25 C 19.578125 42.039062 19.492188 41.824219 19.421875 41.609375 L 19.203125 40.960938 C 19.125 40.746094 19.0625 40.527344 18.996094 40.308594 C 18.933594 40.089844 18.863281 39.875 18.804688 39.652344 L 18.632812 38.992188 C 18.601562 38.882812 18.574219 38.769531 18.546875 38.660156 L 18.46875 38.328125 L 18.320312 37.660156 L 18.132812 36.652344 C 18.109375 36.539062 18.09375 36.425781 18.078125 36.3125 L 17.976562 35.636719 C 17.941406 35.414062 17.917969 35.183594 17.890625 34.960938 C 17.867188 34.730469 17.835938 34.507812 17.820312 34.277344 C 17.785156 33.824219 17.742188 33.375 17.726562 32.898438 L 17.703125 32.371094 L 17.699219 32.28125 L 17.699219 32.203125 L 17.691406 31.5625 L 17.691406 31.210938 L 17.695312 30.890625 L 17.703125 30.253906 C 17.710938 29.402344 17.71875 28.550781 17.734375 27.699219 C 17.746094 26.851562 17.757812 26 17.777344 25.148438 C 17.792969 24.296875 17.808594 23.449219 17.832031 22.597656 L 17.855469 21.601562 L 18.578125 21.054688 C 19.175781 20.605469 19.785156 20.183594 20.414062 19.796875 C 20.570312 19.699219 20.726562 19.605469 20.886719 19.511719 C 21.039062 19.421875 21.214844 19.320312 21.355469 19.238281 L 21.84375 18.972656 C 22.007812 18.890625 22.167969 18.796875 22.332031 18.71875 C 22.988281 18.390625 23.648438 18.074219 24.328125 17.804688 L 24.835938 17.597656 L 25.351562 17.410156 C 25.691406 17.28125 26.039062 17.167969 26.386719 17.058594 C 26.558594 17 26.734375 16.949219 26.910156 16.898438 L 27.433594 16.746094 C 27.609375 16.699219 27.789062 16.660156 27.964844 16.613281 C 28.140625 16.570312 28.316406 16.523438 28.496094 16.484375 L 29.027344 16.371094 L 29.292969 16.316406 L 29.5625 16.269531 L 30.097656 16.175781 C 30.277344 16.140625 30.457031 16.121094 30.636719 16.09375 C 30.816406 16.070312 30.996094 16.042969 31.175781 16.023438 L 31.714844 15.964844 C 32.074219 15.921875 32.4375 15.90625 32.796875 15.878906 C 32.976562 15.867188 33.15625 15.863281 33.335938 15.859375 L 33.875 15.839844 L 34.417969 15.839844 C 34.597656 15.84375 34.777344 15.839844 34.957031 15.847656 C 35.316406 15.863281 35.675781 15.871094 36.035156 15.902344 L 36.570312 15.941406 L 37.105469 15.996094 C 37.816406 16.070312 38.523438 16.1875 39.226562 16.320312 C 39.398438 16.351562 39.574219 16.394531 39.746094 16.433594 C 39.921875 16.472656 40.097656 16.503906 40.269531 16.550781 L 41.042969 16.75 L 41.300781 16.824219 L 41.808594 16.972656 C 41.980469 17.023438 42.148438 17.082031 42.316406 17.136719 C 42.484375 17.195312 42.652344 17.25 42.816406 17.308594 L 43.3125 17.496094 C 43.644531 17.613281 43.96875 17.757812 44.292969 17.890625 C 44.457031 17.957031 44.617188 18.03125 44.777344 18.105469 L 45.253906 18.328125 L 45.722656 18.566406 C 45.878906 18.648438 46.039062 18.722656 46.191406 18.808594 L 46.648438 19.0625 C 46.726562 19.105469 46.800781 19.148438 46.875 19.191406 L 47.101562 19.328125 L 47.546875 19.601562 C 47.695312 19.691406 47.839844 19.789062 47.988281 19.882812 C 48.132812 19.980469 48.28125 20.078125 48.421875 20.175781 L 48.839844 20.476562 L 49.050781 20.628906 L 49.101562 20.664062 C 49.125 20.679688 49.136719 20.691406 49.15625 20.707031 L 49.261719 20.785156 C 49.398438 20.890625 49.535156 20.996094 49.667969 21.105469 C 49.9375 21.320312 50.203125 21.542969 50.457031 21.773438 " fill-opacity="1" fill-rule="nonzero"/></g><g clip-path="url(#bf3d2b3118)"><path fill="#ff0000" d="M 36.605469 45.433594 L 25.335938 33.5625 L 28.433594 30.625 L 36.515625 39.136719 L 54.125 19.519531 L 57.304688 22.375 L 36.605469 45.433594 " fill-opacity="1" fill-rule="nonzero"/></g></svg>