<svg xmlns="http://www.w3.org/2000/svg" xmlns:xlink="http://www.w3.org/1999/xlink" width="100" zoomAndPan="magnify" viewBox="0 0 75 74.999997" height="100" preserveAspectRatio="xMidYMid meet" version="1.0"><defs><clipPath id="8906f66a6c"><path d="M 19.980469 23.726562 L 55.230469 23.726562 L 55.230469 51.476562 L 19.980469 51.476562 Z M 19.980469 23.726562 " clip-rule="nonzero"/></clipPath></defs><g clip-path="url(#8906f66a6c)"><path fill="#ff0000" d="M 46.261719 42.496094 L 46.261719 48.308594 C 46.261719 48.726562 46.050781 49.117188 45.703125 49.351562 C 45.703125 49.351562 42.90625 51.261719 37.503906 51.261719 C 32.105469 51.261719 29.308594 49.351562 29.308594 49.351562 C 28.957031 49.117188 28.746094 48.726562 28.746094 48.308594 L 28.746094 42.496094 C 28.746094 39.046875 31.542969 36.25 34.996094 36.25 L 40.011719 36.25 C 43.464844 36.25 46.261719 39.046875 46.261719 42.496094 Z M 37.503906 23.738281 C 40.347656 23.738281 42.660156 25.714844 42.660156 28.90625 C 42.660156 30.699219 41.875 32.492188 40.675781 33.640625 C 39.789062 34.492188 38.6875 34.996094 37.503906 34.996094 C 36.324219 34.996094 35.21875 34.492188 34.332031 33.640625 C 33.132812 32.492188 32.347656 30.699219 32.347656 28.90625 C 32.347656 25.714844 34.660156 23.738281 37.503906 23.738281 Z M 48.136719 26.710938 C 50.445312 26.710938 52.316406 28.3125 52.316406 30.898438 C 52.316406 32.328125 51.691406 33.757812 50.734375 34.675781 C 50.007812 35.371094 49.105469 35.78125 48.136719 35.78125 C 47.171875 35.78125 46.265625 35.371094 45.542969 34.675781 C 44.585938 33.757812 43.957031 32.328125 43.957031 30.898438 C 43.957031 28.3125 45.832031 26.710938 48.136719 26.710938 Z M 26.871094 26.710938 C 29.175781 26.710938 31.050781 28.3125 31.050781 30.898438 C 31.050781 32.328125 30.421875 33.757812 29.464844 34.675781 C 28.742188 35.371094 27.835938 35.78125 26.871094 35.78125 C 25.90625 35.78125 25 35.371094 24.273438 34.675781 C 23.320312 33.757812 22.691406 32.328125 22.691406 30.898438 C 22.691406 28.3125 24.566406 26.710938 26.871094 26.710938 Z M 26.269531 48.75 C 22.496094 48.617188 20.550781 47.273438 20.550781 47.273438 C 20.199219 47.042969 19.988281 46.652344 19.988281 46.230469 L 19.988281 43.121094 C 19.988281 39.671875 22.789062 36.875 26.238281 36.875 L 27.503906 36.875 C 27.757812 36.875 28.007812 36.890625 28.253906 36.917969 C 27 38.433594 26.246094 40.375 26.246094 42.496094 L 26.246094 48.308594 C 26.246094 48.457031 26.253906 48.601562 26.269531 48.75 Z M 46.753906 36.917969 C 47 36.890625 47.253906 36.875 47.507812 36.875 L 48.769531 36.875 C 52.222656 36.875 55.019531 39.671875 55.019531 43.121094 L 55.019531 46.230469 C 55.019531 46.652344 54.808594 47.042969 54.460938 47.273438 C 54.460938 47.273438 52.511719 48.617188 48.738281 48.75 C 48.753906 48.601562 48.765625 48.457031 48.765625 48.308594 L 48.765625 42.496094 C 48.765625 40.375 48.011719 38.433594 46.753906 36.917969 Z M 46.753906 36.917969 " fill-opacity="1" fill-rule="evenodd"/></g></svg>